<svg width="588" height="592" viewBox="0 0 588 592" fill="none" xmlns="http://www.w3.org/2000/svg">
<path d="M282.061 12.8008C289.52 8.46308 298.733 8.46309 306.192 12.8008L531.68 143.936C539.068 148.233 543.614 156.135 543.614 164.682V427.318C543.614 435.865 539.068 443.767 531.68 448.064L306.192 579.199C298.733 583.537 289.52 583.537 282.061 579.199L56.5729 448.064C49.1842 443.767 44.6383 435.865 44.6383 427.318V164.682C44.6383 156.135 49.1842 148.233 56.5729 143.936L282.061 12.8008Z" fill="white" stroke="white" stroke-width="10"/>
<path d="M258.725 206.594V218.768H230.29V272H214.567V206.594H258.725ZM297.987 206.594V272H282.22V206.594H297.987ZM317.663 206.594V218.768H262.993V206.594H317.663ZM345.065 247.338L360.518 206.594H377.184L355.128 258.479C354.289 260.395 353.316 262.222 352.208 263.959C351.13 265.696 349.842 267.238 348.345 268.586C346.877 269.934 345.14 270.997 343.134 271.775C341.127 272.554 338.776 272.943 336.081 272.943C335.422 272.943 334.613 272.928 333.655 272.898C332.727 272.898 331.918 272.883 331.229 272.854L330.96 260.635C331.349 260.725 331.888 260.785 332.577 260.814C333.266 260.814 333.76 260.814 334.059 260.814C335.856 260.814 337.279 260.605 338.327 260.186C339.375 259.736 340.199 259.077 340.798 258.209C341.427 257.311 341.966 256.173 342.415 254.795L345.065 247.338ZM336.306 206.594L349.692 234.984L354.813 253.133H343.493L319.55 206.594H336.306ZM111.427 314.594V380H95.6591V326.768H72.1649V380H56.4423V314.594H111.427ZM158.505 357.854H174.227C174.018 362.406 172.79 366.419 170.544 369.893C168.298 373.367 165.183 376.077 161.2 378.023C157.247 379.94 152.575 380.898 147.184 380.898C142.812 380.898 138.904 380.165 135.46 378.697C132.046 377.23 129.141 375.118 126.745 372.363C124.379 369.608 122.567 366.269 121.309 362.346C120.082 358.423 119.468 354.005 119.468 349.094V345.545C119.468 340.633 120.112 336.216 121.399 332.293C122.717 328.34 124.574 324.986 126.97 322.23C129.395 319.445 132.3 317.319 135.684 315.852C139.069 314.384 142.827 313.65 146.96 313.65C152.65 313.65 157.457 314.669 161.38 316.705C165.303 318.742 168.343 321.542 170.499 325.105C172.655 328.639 173.928 332.667 174.317 337.189H158.595C158.535 334.734 158.115 332.682 157.337 331.035C156.558 329.358 155.33 328.1 153.653 327.262C151.976 326.423 149.745 326.004 146.96 326.004C145.013 326.004 143.321 326.363 141.884 327.082C140.446 327.801 139.248 328.939 138.29 330.496C137.332 332.053 136.613 334.075 136.134 336.561C135.684 339.016 135.46 341.981 135.46 345.455V349.094C135.46 352.568 135.669 355.533 136.089 357.988C136.508 360.444 137.182 362.451 138.11 364.008C139.039 365.565 140.237 366.718 141.704 367.467C143.201 368.186 145.028 368.545 147.184 368.545C149.58 368.545 151.602 368.171 153.249 367.422C154.896 366.643 156.169 365.475 157.067 363.918C157.966 362.331 158.445 360.309 158.505 357.854ZM210.524 345.949V357.674H183.526V345.949H210.524ZM231.727 368.77H232.626C235.621 368.77 238.316 368.44 240.712 367.781C243.108 367.122 245.159 366.104 246.866 364.727C248.573 363.319 249.876 361.507 250.774 359.291C251.703 357.045 252.167 354.335 252.167 351.16V337.639C252.167 335.542 251.987 333.73 251.628 332.203C251.268 330.646 250.744 329.358 250.056 328.34C249.367 327.322 248.543 326.573 247.585 326.094C246.627 325.585 245.548 325.33 244.35 325.33C243.153 325.33 242.089 325.674 241.161 326.363C240.263 327.022 239.484 327.921 238.825 329.059C238.196 330.167 237.717 331.424 237.388 332.832C237.058 334.21 236.893 335.602 236.893 337.01C236.893 338.597 237.058 340.079 237.388 341.457C237.747 342.805 238.256 343.988 238.915 345.006C239.604 345.994 240.457 346.773 241.475 347.342C242.524 347.911 243.737 348.195 245.114 348.195C246.492 348.195 247.675 347.956 248.663 347.477C249.681 346.967 250.52 346.309 251.179 345.5C251.837 344.661 252.317 343.763 252.616 342.805C252.946 341.846 253.095 340.903 253.065 339.975L257.468 343.434C257.468 345.35 257.033 347.237 256.165 349.094C255.296 350.951 254.099 352.643 252.571 354.17C251.044 355.667 249.277 356.865 247.27 357.764C245.294 358.662 243.197 359.111 240.981 359.111C238.016 359.111 235.336 358.587 232.94 357.539C230.574 356.491 228.553 354.993 226.876 353.047C225.199 351.1 223.911 348.779 223.013 346.084C222.144 343.359 221.71 340.334 221.71 337.01C221.71 333.805 222.264 330.796 223.372 327.98C224.48 325.165 226.052 322.695 228.089 320.568C230.125 318.412 232.536 316.72 235.321 315.492C238.106 314.264 241.161 313.65 244.485 313.65C247.63 313.65 250.58 314.249 253.335 315.447C256.09 316.615 258.516 318.337 260.612 320.613C262.709 322.889 264.356 325.689 265.554 329.014C266.752 332.338 267.35 336.141 267.35 340.424V345.635C267.35 350.277 266.781 354.469 265.643 358.213C264.505 361.956 262.888 365.251 260.792 368.096C258.696 370.911 256.21 373.277 253.335 375.193C250.49 377.08 247.33 378.503 243.856 379.461C240.412 380.419 236.759 380.898 232.895 380.898H231.727V368.77ZM320.942 341.322V353.271C320.942 357.973 320.388 362.061 319.28 365.535C318.202 369.009 316.645 371.884 314.608 374.16C312.602 376.436 310.206 378.128 307.421 379.236C304.636 380.344 301.566 380.898 298.212 380.898C295.516 380.898 293.001 380.554 290.665 379.865C288.329 379.146 286.218 378.068 284.331 376.631C282.474 375.163 280.872 373.337 279.524 371.15C278.177 368.964 277.143 366.389 276.425 363.424C275.706 360.429 275.347 357.045 275.347 353.271V341.322C275.347 336.59 275.886 332.503 276.964 329.059C278.072 325.585 279.644 322.71 281.681 320.434C283.717 318.158 286.128 316.465 288.913 315.357C291.698 314.249 294.768 313.695 298.122 313.695C300.817 313.695 303.318 314.055 305.624 314.773C307.96 315.462 310.071 316.54 311.958 318.008C313.845 319.445 315.447 321.257 316.765 323.443C318.112 325.63 319.145 328.22 319.864 331.215C320.583 334.18 320.942 337.549 320.942 341.322ZM305.804 355.113V339.391C305.804 337.294 305.684 335.467 305.444 333.91C305.235 332.353 304.905 331.035 304.456 329.957C304.037 328.879 303.513 328.01 302.884 327.352C302.255 326.663 301.536 326.169 300.727 325.869C299.949 325.54 299.08 325.375 298.122 325.375C296.924 325.375 295.846 325.63 294.888 326.139C293.959 326.618 293.166 327.396 292.507 328.475C291.848 329.553 291.339 330.99 290.979 332.787C290.65 334.584 290.485 336.785 290.485 339.391V355.113C290.485 357.24 290.59 359.096 290.8 360.684C291.039 362.241 291.369 363.574 291.788 364.682C292.237 365.76 292.776 366.643 293.405 367.332C294.034 367.991 294.753 368.47 295.561 368.77C296.37 369.069 297.253 369.219 298.212 369.219C299.38 369.219 300.428 368.979 301.356 368.5C302.285 368.021 303.078 367.242 303.737 366.164C304.426 365.056 304.935 363.604 305.265 361.807C305.624 359.98 305.804 357.749 305.804 355.113ZM358.677 345.949V357.674H331.679V345.949H358.677ZM415.323 314.594V326.768H386.888V380H371.165V314.594H415.323ZM477.45 314.594V380H461.682V326.768H438.188V380H422.466V314.594H477.45ZM532.03 368.32V380H486.39V370.117L507.413 348.016C509.27 345.889 510.767 343.988 511.905 342.311C513.043 340.604 513.867 339.061 514.376 337.684C514.915 336.306 515.184 335.063 515.184 333.955C515.184 332.068 514.9 330.496 514.331 329.238C513.792 327.951 512.983 326.977 511.905 326.318C510.857 325.66 509.554 325.33 507.997 325.33C506.44 325.33 505.077 325.779 503.909 326.678C502.741 327.576 501.828 328.804 501.169 330.361C500.54 331.919 500.225 333.671 500.225 335.617H485.042C485.042 331.604 486.015 327.936 487.962 324.611C489.938 321.287 492.679 318.637 496.182 316.66C499.686 314.654 503.744 313.65 508.356 313.65C513.178 313.65 517.221 314.399 520.485 315.896C523.75 317.394 526.205 319.565 527.852 322.41C529.53 325.225 530.368 328.624 530.368 332.607C530.368 334.883 530.009 337.07 529.29 339.166C528.571 341.262 527.538 343.344 526.19 345.41C524.843 347.447 523.196 349.543 521.249 351.699C519.332 353.855 517.146 356.146 514.69 358.572L506.245 368.32H532.03Z" fill="#0079C2"/>
</svg>
