<svg width="510" height="592" viewBox="0 0 510 592" fill="none" xmlns="http://www.w3.org/2000/svg">
<path d="M242.578 12.8008C250.037 8.46308 259.251 8.46309 266.709 12.8008L492.197 143.936C499.586 148.233 504.132 156.135 504.132 164.682V427.318C504.132 435.865 499.586 443.767 492.197 448.064L266.709 579.199C259.251 583.537 250.037 583.537 242.578 579.199L17.0906 448.064C9.70184 443.767 5.15601 435.865 5.15601 427.318V164.682C5.15601 156.135 9.70184 148.233 17.0906 143.936L242.578 12.8008Z" fill="white" stroke="white" stroke-width="10"/>
<path d="M69.1758 306.036L78.8799 288.984H85.3926V316H78.8799V298.967L69.1758 316H62.6631V288.984H69.1758V306.036ZM104.745 306.853H111.239C111.153 308.733 110.646 310.39 109.718 311.825C108.79 313.26 107.504 314.38 105.858 315.184C104.226 315.975 102.296 316.371 100.069 316.371C98.2633 316.371 96.6491 316.068 95.2266 315.462C93.8164 314.856 92.6165 313.984 91.627 312.846C90.6497 311.708 89.9014 310.328 89.3818 308.708C88.8747 307.088 88.6211 305.263 88.6211 303.234V301.769C88.6211 299.74 88.887 297.915 89.4189 296.295C89.9632 294.662 90.7301 293.277 91.7197 292.139C92.7217 290.988 93.9215 290.11 95.3193 289.504C96.7171 288.898 98.2695 288.595 99.9766 288.595C102.327 288.595 104.312 289.015 105.933 289.856C107.553 290.698 108.809 291.854 109.699 293.326C110.59 294.786 111.116 296.45 111.276 298.317H104.782C104.757 297.303 104.584 296.456 104.263 295.775C103.941 295.083 103.434 294.563 102.741 294.217C102.049 293.87 101.127 293.697 99.9766 293.697C99.1725 293.697 98.4736 293.846 97.8799 294.143C97.2861 294.439 96.7913 294.91 96.3955 295.553C95.9997 296.196 95.7028 297.031 95.5049 298.058C95.3193 299.072 95.2266 300.297 95.2266 301.731V303.234C95.2266 304.669 95.3132 305.894 95.4863 306.908C95.6595 307.923 95.9378 308.751 96.3213 309.395C96.7048 310.038 97.1995 310.514 97.8057 310.823C98.4242 311.12 99.1787 311.269 100.069 311.269C101.059 311.269 101.894 311.114 102.574 310.805C103.255 310.483 103.78 310.001 104.151 309.357C104.522 308.702 104.72 307.867 104.745 306.853ZM126.844 288.984V316H120.331V288.984H126.844ZM134.971 288.984V294.013H112.39V288.984H134.971ZM160.075 301.954V303.049C160.075 305.115 159.785 306.97 159.203 308.615C158.634 310.248 157.824 311.646 156.772 312.809C155.721 313.959 154.478 314.843 153.043 315.462C151.608 316.068 150.025 316.371 148.293 316.371C146.549 316.371 144.953 316.068 143.506 315.462C142.071 314.843 140.822 313.959 139.758 312.809C138.706 311.646 137.89 310.248 137.309 308.615C136.74 306.97 136.455 305.115 136.455 303.049V301.954C136.455 299.888 136.74 298.033 137.309 296.388C137.89 294.743 138.7 293.345 139.739 292.194C140.791 291.032 142.034 290.147 143.469 289.541C144.916 288.923 146.512 288.613 148.256 288.613C149.988 288.613 151.571 288.923 153.006 289.541C154.453 290.147 155.702 291.032 156.754 292.194C157.805 293.345 158.622 294.743 159.203 296.388C159.785 298.033 160.075 299.888 160.075 301.954ZM153.47 303.049V301.917C153.47 300.581 153.352 299.406 153.117 298.392C152.895 297.365 152.561 296.505 152.115 295.812C151.67 295.12 151.119 294.6 150.464 294.254C149.821 293.895 149.085 293.716 148.256 293.716C147.39 293.716 146.635 293.895 145.992 294.254C145.349 294.6 144.811 295.12 144.378 295.812C143.945 296.505 143.617 297.365 143.395 298.392C143.184 299.406 143.079 300.581 143.079 301.917V303.049C143.079 304.372 143.184 305.548 143.395 306.574C143.617 307.589 143.945 308.448 144.378 309.153C144.823 309.858 145.368 310.39 146.011 310.749C146.666 311.108 147.427 311.287 148.293 311.287C149.122 311.287 149.858 311.108 150.501 310.749C151.144 310.39 151.682 309.858 152.115 309.153C152.561 308.448 152.895 307.589 153.117 306.574C153.352 305.548 153.47 304.372 153.47 303.049ZM174.232 306.834H167.516V301.806H174.232C175.148 301.806 175.89 301.651 176.459 301.342C177.028 301.033 177.442 300.606 177.702 300.062C177.974 299.505 178.11 298.88 178.11 298.188C178.11 297.445 177.974 296.759 177.702 296.128C177.442 295.497 177.028 294.99 176.459 294.606C175.89 294.211 175.148 294.013 174.232 294.013H169.965V316H163.452V288.984H174.232C176.397 288.984 178.259 289.38 179.817 290.172C181.388 290.964 182.594 292.052 183.436 293.438C184.277 294.811 184.697 296.382 184.697 298.15C184.697 299.895 184.277 301.416 183.436 302.715C182.594 304.014 181.388 305.028 179.817 305.758C178.259 306.475 176.397 306.834 174.232 306.834ZM194.346 306.036L204.05 288.984H210.562V316H204.05V298.967L194.346 316H187.833V288.984H194.346V306.036ZM228.616 306.519H221.398L219.469 305.721C217.267 305.028 215.591 304.001 214.44 302.641C213.29 301.268 212.715 299.517 212.715 297.39C212.715 295.534 213.129 293.988 213.958 292.751C214.787 291.502 215.962 290.562 217.483 289.931C219.005 289.3 220.811 288.984 222.901 288.984H232.698V316H226.167V294.013H222.901C221.603 294.013 220.662 294.353 220.081 295.033C219.5 295.701 219.209 296.678 219.209 297.965C219.209 298.954 219.345 299.734 219.617 300.303C219.902 300.872 220.316 301.28 220.86 301.527C221.405 301.762 222.085 301.88 222.901 301.88H228.579L228.616 306.519ZM223.606 304.088L217.873 316H210.785L216.444 304.088H223.606ZM261.124 306.853H267.618C267.532 308.733 267.024 310.39 266.097 311.825C265.169 313.26 263.882 314.38 262.237 315.184C260.604 315.975 258.675 316.371 256.448 316.371C254.642 316.371 253.028 316.068 251.605 315.462C250.195 314.856 248.995 313.984 248.006 312.846C247.029 311.708 246.28 310.328 245.761 308.708C245.254 307.088 245 305.263 245 303.234V301.769C245 299.74 245.266 297.915 245.798 296.295C246.342 294.662 247.109 293.277 248.099 292.139C249.101 290.988 250.3 290.11 251.698 289.504C253.096 288.898 254.648 288.595 256.355 288.595C258.706 288.595 260.691 289.015 262.312 289.856C263.932 290.698 265.188 291.854 266.078 293.326C266.969 294.786 267.494 296.45 267.655 298.317H261.161C261.136 297.303 260.963 296.456 260.642 295.775C260.32 295.083 259.813 294.563 259.12 294.217C258.427 293.87 257.506 293.697 256.355 293.697C255.551 293.697 254.853 293.846 254.259 294.143C253.665 294.439 253.17 294.91 252.774 295.553C252.379 296.196 252.082 297.031 251.884 298.058C251.698 299.072 251.605 300.297 251.605 301.731V303.234C251.605 304.669 251.692 305.894 251.865 306.908C252.038 307.923 252.317 308.751 252.7 309.395C253.084 310.038 253.578 310.514 254.185 310.823C254.803 311.12 255.558 311.269 256.448 311.269C257.438 311.269 258.273 311.114 258.953 310.805C259.633 310.483 260.159 310.001 260.53 309.357C260.901 308.702 261.099 307.867 261.124 306.853ZM293.558 301.954V303.049C293.558 305.115 293.267 306.97 292.686 308.615C292.117 310.248 291.306 311.646 290.255 312.809C289.203 313.959 287.96 314.843 286.525 315.462C285.09 316.068 283.507 316.371 281.775 316.371C280.031 316.371 278.436 316.068 276.988 315.462C275.553 314.843 274.304 313.959 273.24 312.809C272.189 311.646 271.372 310.248 270.791 308.615C270.222 306.97 269.938 305.115 269.938 303.049V301.954C269.938 299.888 270.222 298.033 270.791 296.388C271.372 294.743 272.183 293.345 273.222 292.194C274.273 291.032 275.516 290.147 276.951 289.541C278.398 288.923 279.994 288.613 281.738 288.613C283.47 288.613 285.053 288.923 286.488 289.541C287.936 290.147 289.185 291.032 290.236 292.194C291.288 293.345 292.104 294.743 292.686 296.388C293.267 298.033 293.558 299.888 293.558 301.954ZM286.952 303.049V301.917C286.952 300.581 286.835 299.406 286.6 298.392C286.377 297.365 286.043 296.505 285.598 295.812C285.152 295.12 284.602 294.6 283.946 294.254C283.303 293.895 282.567 293.716 281.738 293.716C280.872 293.716 280.118 293.895 279.475 294.254C278.831 294.6 278.293 295.12 277.86 295.812C277.427 296.505 277.1 297.365 276.877 298.392C276.667 299.406 276.562 300.581 276.562 301.917V303.049C276.562 304.372 276.667 305.548 276.877 306.574C277.1 307.589 277.427 308.448 277.86 309.153C278.306 309.858 278.85 310.39 279.493 310.749C280.149 311.108 280.91 311.287 281.775 311.287C282.604 311.287 283.34 311.108 283.983 310.749C284.627 310.39 285.165 309.858 285.598 309.153C286.043 308.448 286.377 307.589 286.6 306.574C286.835 305.548 286.952 304.372 286.952 303.049ZM307.9 303.067H303.243V299.802H306.694C307.498 299.802 308.148 299.672 308.643 299.412C309.137 299.14 309.502 298.757 309.737 298.262C309.972 297.755 310.09 297.161 310.09 296.48C310.09 295.973 309.954 295.503 309.682 295.07C309.422 294.637 309.02 294.291 308.476 294.031C307.931 293.771 307.239 293.642 306.397 293.642C305.754 293.642 305.167 293.747 304.635 293.957C304.103 294.167 303.682 294.477 303.373 294.885C303.064 295.281 302.909 295.775 302.909 296.369H296.415C296.415 295.157 296.681 294.075 297.213 293.122C297.745 292.17 298.468 291.359 299.384 290.691C300.312 290.023 301.375 289.516 302.575 289.17C303.787 288.811 305.062 288.632 306.397 288.632C307.944 288.632 309.341 288.799 310.591 289.133C311.84 289.454 312.91 289.937 313.801 290.58C314.704 291.223 315.396 292.027 315.879 292.992C316.361 293.945 316.603 295.052 316.603 296.313C316.603 297.241 316.392 298.113 315.972 298.93C315.563 299.746 314.976 300.464 314.209 301.082C313.442 301.701 312.521 302.189 311.444 302.548C310.381 302.894 309.199 303.067 307.9 303.067ZM303.243 301.416H307.9C309.348 301.416 310.634 301.571 311.76 301.88C312.885 302.189 313.838 302.641 314.617 303.234C315.409 303.828 316.009 304.564 316.417 305.442C316.825 306.308 317.029 307.304 317.029 308.43C317.029 309.691 316.763 310.817 316.231 311.807C315.712 312.784 314.976 313.613 314.023 314.293C313.071 314.973 311.945 315.487 310.646 315.833C309.36 316.179 307.944 316.353 306.397 316.353C305.148 316.353 303.905 316.204 302.668 315.907C301.443 315.598 300.33 315.128 299.328 314.497C298.326 313.866 297.522 313.056 296.916 312.066C296.322 311.077 296.025 309.889 296.025 308.504H302.557C302.557 309.048 302.717 309.537 303.039 309.97C303.373 310.403 303.831 310.743 304.412 310.99C304.993 311.238 305.655 311.361 306.397 311.361C307.263 311.361 307.999 311.225 308.605 310.953C309.224 310.681 309.694 310.31 310.016 309.84C310.337 309.37 310.498 308.85 310.498 308.281C310.498 307.613 310.418 307.05 310.257 306.593C310.096 306.123 309.855 305.745 309.533 305.461C309.212 305.164 308.81 304.954 308.327 304.83C307.857 304.694 307.313 304.626 306.694 304.626H303.243V301.416ZM342.394 310.99V316H323.412V310.99H342.394ZM325.564 310.99V322.624H319.534L319.089 310.99H325.564ZM346.828 310.99L346.142 322.643H340.297V310.99H346.828ZM339.555 288.984V294.013H325.991V288.984H339.555ZM343.934 288.984V316H337.458V288.984H343.934ZM325.564 288.984H332.059L331.261 300.062C331.125 301.954 330.908 303.599 330.611 304.997C330.314 306.395 329.962 307.601 329.554 308.615C329.146 309.63 328.7 310.502 328.218 311.231C327.735 311.961 327.228 312.598 326.696 313.143C326.177 313.687 325.657 314.182 325.138 314.627C324.618 315.072 324.117 315.53 323.635 316H319.683V310.99H320.981C321.365 310.718 321.748 310.353 322.132 309.896C322.528 309.425 322.899 308.788 323.245 307.984C323.591 307.18 323.895 306.135 324.154 304.849C324.414 303.562 324.612 301.966 324.748 300.062L325.564 288.984ZM360.818 294.662L354.231 316H347.236L357.163 288.984H361.598L360.818 294.662ZM366.273 316L359.668 294.662L358.814 288.984H363.305L373.287 316H366.273ZM366.014 305.925V310.953H352.153V305.925H366.014ZM393.475 299.709V304.719H379.614V299.709H393.475ZM381.785 288.984V316H375.272V288.984H381.785ZM397.854 288.984V316H391.359V288.984H397.854ZM408.133 306.036L417.837 288.984H424.35V316H417.837V298.967L408.133 316H401.62V288.984H408.133V306.036ZM442.403 306.519H435.186L433.256 305.721C431.054 305.028 429.378 304.001 428.228 302.641C427.077 301.268 426.502 299.517 426.502 297.39C426.502 295.534 426.916 293.988 427.745 292.751C428.574 291.502 429.749 290.562 431.271 289.931C432.792 289.3 434.598 288.984 436.688 288.984H446.485V316H439.954V294.013H436.688C435.39 294.013 434.45 294.353 433.868 295.033C433.287 295.701 432.996 296.678 432.996 297.965C432.996 298.954 433.132 299.734 433.404 300.303C433.689 300.872 434.103 301.28 434.647 301.527C435.192 301.762 435.872 301.88 436.688 301.88H442.366L442.403 306.519ZM437.394 304.088L431.66 316H424.572L430.231 304.088H437.394Z" fill="#0079C2"/>
</svg>
