<svg width="510" height="592" viewBox="0 0 510 592" fill="none" xmlns="http://www.w3.org/2000/svg">
<path d="M266.709 12.8008L492.197 143.936C499.586 148.233 504.132 156.135 504.132 164.682V427.318C504.132 435.865 499.586 443.767 492.197 448.064L266.709 579.199C259.251 583.537 250.037 583.537 242.578 579.199L17.0906 448.064C9.70184 443.767 5.15601 435.865 5.15601 427.318V164.682C5.15601 156.135 9.70184 148.233 17.0906 143.936L242.578 12.8008C250.037 8.46308 259.251 8.46309 266.709 12.8008Z" fill="white" stroke="white" stroke-width="10"/>
<path d="M177.164 281.954V283.049C177.164 285.115 176.873 286.97 176.292 288.615C175.723 290.248 174.913 291.646 173.861 292.809C172.81 293.959 171.567 294.843 170.132 295.462C168.697 296.068 167.114 296.371 165.382 296.371C163.638 296.371 162.042 296.068 160.595 295.462C159.16 294.843 157.91 293.959 156.847 292.809C155.795 291.646 154.979 290.248 154.397 288.615C153.828 286.97 153.544 285.115 153.544 283.049V281.954C153.544 279.888 153.828 278.033 154.397 276.388C154.979 274.743 155.789 273.345 156.828 272.194C157.88 271.032 159.123 270.147 160.558 269.541C162.005 268.923 163.601 268.613 165.345 268.613C167.076 268.613 168.66 268.923 170.095 269.541C171.542 270.147 172.791 271.032 173.843 272.194C174.894 273.345 175.711 274.743 176.292 276.388C176.873 278.033 177.164 279.888 177.164 281.954ZM170.559 283.049V281.917C170.559 280.581 170.441 279.406 170.206 278.392C169.983 277.365 169.649 276.505 169.204 275.812C168.759 275.12 168.208 274.6 167.553 274.254C166.91 273.895 166.174 273.716 165.345 273.716C164.479 273.716 163.724 273.895 163.081 274.254C162.438 274.6 161.9 275.12 161.467 275.812C161.034 276.505 160.706 277.365 160.483 278.392C160.273 279.406 160.168 280.581 160.168 281.917V283.049C160.168 284.372 160.273 285.548 160.483 286.574C160.706 287.589 161.034 288.448 161.467 289.153C161.912 289.858 162.456 290.39 163.1 290.749C163.755 291.108 164.516 291.287 165.382 291.287C166.211 291.287 166.947 291.108 167.59 290.749C168.233 290.39 168.771 289.858 169.204 289.153C169.649 288.448 169.983 287.589 170.206 286.574C170.441 285.548 170.559 284.372 170.559 283.049ZM203.215 268.984V296H196.702V274.013H186.998V296H180.504V268.984H203.215ZM213.438 286.036L223.143 268.984H229.655V296H223.143V278.967L213.438 296H206.926V268.984H213.438V286.036ZM249.008 286.853H255.502C255.415 288.733 254.908 290.39 253.98 291.825C253.053 293.26 251.766 294.38 250.121 295.184C248.488 295.975 246.559 296.371 244.332 296.371C242.526 296.371 240.912 296.068 239.489 295.462C238.079 294.856 236.879 293.984 235.89 292.846C234.912 291.708 234.164 290.328 233.645 288.708C233.137 287.088 232.884 285.263 232.884 283.234V281.769C232.884 279.74 233.15 277.915 233.682 276.295C234.226 274.662 234.993 273.277 235.982 272.139C236.984 270.988 238.184 270.11 239.582 269.504C240.98 268.898 242.532 268.595 244.239 268.595C246.59 268.595 248.575 269.015 250.195 269.856C251.816 270.698 253.071 271.854 253.962 273.326C254.853 274.786 255.378 276.45 255.539 278.317H249.045C249.02 277.303 248.847 276.456 248.525 275.775C248.204 275.083 247.697 274.563 247.004 274.217C246.311 273.87 245.39 273.697 244.239 273.697C243.435 273.697 242.736 273.846 242.143 274.143C241.549 274.439 241.054 274.91 240.658 275.553C240.262 276.196 239.965 277.031 239.768 278.058C239.582 279.072 239.489 280.297 239.489 281.731V283.234C239.489 284.669 239.576 285.894 239.749 286.908C239.922 287.923 240.201 288.751 240.584 289.395C240.967 290.038 241.462 290.514 242.068 290.823C242.687 291.12 243.441 291.269 244.332 291.269C245.322 291.269 246.157 291.114 246.837 290.805C247.517 290.483 248.043 290.001 248.414 289.357C248.785 288.702 248.983 287.867 249.008 286.853ZM270.03 274.662L263.443 296H256.448L266.375 268.984H270.81L270.03 274.662ZM275.485 296L268.88 274.662L268.026 268.984H272.517L282.499 296H275.485ZM275.226 285.925V290.953H261.365V285.925H275.226ZM302.687 279.709V284.719H288.826V279.709H302.687ZM290.997 268.984V296H284.484V268.984H290.997ZM307.065 268.984V296H300.571V268.984H307.065ZM317.345 286.036L327.049 268.984H333.562V296H327.049V278.967L317.345 296H310.832V268.984H317.345V286.036ZM356.143 290.99V296H341.744V290.99H356.143ZM344.063 268.984V296H337.551V268.984H344.063ZM354.287 279.709V284.552H341.744V279.709H354.287ZM356.198 268.984V274.013H341.744V268.984H356.198Z" fill="#0079C2"/>
</svg>
