<svg width="512" height="592" viewBox="0 0 512 592" fill="none" xmlns="http://www.w3.org/2000/svg">
<path d="M268.709 12.8008L494.197 143.936C501.586 148.233 506.132 156.135 506.132 164.682V427.318C506.132 435.865 501.586 443.767 494.197 448.064L268.709 579.199C261.251 583.537 252.037 583.537 244.578 579.199L19.0906 448.064C11.7018 443.767 7.15601 435.865 7.15601 427.318V164.682C7.15601 156.135 11.7018 148.233 19.0906 143.936L244.578 12.8008C252.037 8.46308 261.251 8.46309 268.709 12.8008Z" fill="white" stroke="white" stroke-width="10"/>
<path d="M136.103 268.984V296H129.59V268.984H136.103ZM144.229 268.984V274.013H121.648V268.984H144.229ZM165.586 290.99V296H151.188V290.99H165.586ZM153.507 268.984V296H146.994V268.984H153.507ZM163.73 279.709V284.552H151.188V279.709H163.73ZM165.642 268.984V274.013H151.188V268.984H165.642ZM173.917 268.984L178.333 277.965L182.749 268.984H190.171L182.638 282.381L190.375 296H182.879L178.333 286.853L173.787 296H166.272L174.028 282.381L166.477 268.984H173.917ZM210.729 279.709V284.719H196.869V279.709H210.729ZM199.04 268.984V296H192.527V268.984H199.04ZM215.108 268.984V296H208.614V268.984H215.108ZM225.388 286.036L235.092 268.984H241.604V296H235.092V278.967L225.388 296H218.875V268.984H225.388V286.036ZM245.501 268.984H252.014V277.204C252.014 278.293 252.187 279.14 252.533 279.746C252.892 280.352 253.424 280.779 254.129 281.026C254.834 281.274 255.712 281.397 256.764 281.397C257.036 281.397 257.425 281.385 257.933 281.36C258.452 281.323 259.003 281.274 259.584 281.212C260.165 281.15 260.71 281.082 261.217 281.008C261.724 280.921 262.101 280.822 262.349 280.711V285.721C262.089 285.82 261.693 285.912 261.161 285.999C260.629 286.086 260.066 286.16 259.473 286.222C258.879 286.284 258.328 286.333 257.821 286.37C257.326 286.395 256.974 286.407 256.764 286.407C254.5 286.407 252.521 286.079 250.826 285.424C249.144 284.768 247.833 283.76 246.893 282.399C245.965 281.039 245.501 279.307 245.501 277.204V268.984ZM261.068 268.984H267.581V296H261.068V268.984ZM290.236 290.99V296H275.838V290.99H290.236ZM278.157 268.984V296H271.645V268.984H278.157ZM288.381 279.709V284.552H275.838V279.709H288.381ZM290.292 268.984V274.013H275.838V268.984H290.292ZM308.271 286.853H314.766C314.679 288.733 314.172 290.39 313.244 291.825C312.316 293.26 311.03 294.38 309.385 295.184C307.752 295.975 305.822 296.371 303.596 296.371C301.79 296.371 300.175 296.068 298.753 295.462C297.343 294.856 296.143 293.984 295.153 292.846C294.176 291.708 293.428 290.328 292.908 288.708C292.401 287.088 292.147 285.263 292.147 283.234V281.769C292.147 279.74 292.413 277.915 292.945 276.295C293.49 274.662 294.257 273.277 295.246 272.139C296.248 270.988 297.448 270.11 298.846 269.504C300.243 268.898 301.796 268.595 303.503 268.595C305.853 268.595 307.839 269.015 309.459 269.856C311.079 270.698 312.335 271.854 313.226 273.326C314.116 274.786 314.642 276.45 314.803 278.317H308.309C308.284 277.303 308.111 276.456 307.789 275.775C307.467 275.083 306.96 274.563 306.268 274.217C305.575 273.87 304.653 273.697 303.503 273.697C302.699 273.697 302 273.846 301.406 274.143C300.812 274.439 300.318 274.91 299.922 275.553C299.526 276.196 299.229 277.031 299.031 278.058C298.846 279.072 298.753 280.297 298.753 281.731V283.234C298.753 284.669 298.84 285.894 299.013 286.908C299.186 287.923 299.464 288.751 299.848 289.395C300.231 290.038 300.726 290.514 301.332 290.823C301.951 291.12 302.705 291.269 303.596 291.269C304.585 291.269 305.42 291.114 306.101 290.805C306.781 290.483 307.307 290.001 307.678 289.357C308.049 288.702 308.247 287.867 308.271 286.853ZM324.303 268.984V296H317.809V268.984H324.303ZM339.889 268.984L330.185 285.312H323.171L322.392 279.431H326.826L332.021 268.984H339.889ZM333.135 296L326.808 284.181L331.539 279.82L340.816 296H333.135ZM353.897 274.662L347.311 296H340.315L350.242 268.984H354.677L353.897 274.662ZM359.353 296L352.747 274.662L351.894 268.984H356.384L366.366 296H359.353ZM359.093 285.925V290.953H345.232V285.925H359.093ZM382.416 286.519H375.198L373.269 285.721C371.067 285.028 369.391 284.001 368.24 282.641C367.09 281.268 366.515 279.517 366.515 277.39C366.515 275.534 366.929 273.988 367.758 272.751C368.587 271.502 369.762 270.562 371.283 269.931C372.805 269.3 374.611 268.984 376.701 268.984H386.498V296H379.967V274.013H376.701C375.402 274.013 374.462 274.353 373.881 275.033C373.299 275.701 373.009 276.678 373.009 277.965C373.009 278.954 373.145 279.734 373.417 280.303C373.701 280.872 374.116 281.28 374.66 281.527C375.204 281.762 375.885 281.88 376.701 281.88H382.379L382.416 286.519ZM377.406 284.088L371.673 296H364.585L370.244 284.088H377.406ZM90.3838 313.984L94.7998 322.965L99.2158 313.984H106.638L99.1045 327.381L106.842 341H99.3457L94.7998 331.853L90.2539 341H82.7393L90.4951 327.381L82.9434 313.984H90.3838ZM120.442 319.662L113.855 341H106.86L116.787 313.984H121.222L120.442 319.662ZM125.897 341L119.292 319.662L118.438 313.984H122.929L132.911 341H125.897ZM125.638 330.925V335.953H111.777V330.925H125.638ZM145.677 331.834H138.96V326.806H145.677C146.592 326.806 147.334 326.651 147.903 326.342C148.472 326.033 148.887 325.606 149.146 325.062C149.419 324.505 149.555 323.88 149.555 323.188C149.555 322.445 149.419 321.759 149.146 321.128C148.887 320.497 148.472 319.99 147.903 319.606C147.334 319.211 146.592 319.013 145.677 319.013H141.409V341H134.896V313.984H145.677C147.841 313.984 149.703 314.38 151.262 315.172C152.833 315.964 154.039 317.052 154.88 318.438C155.721 319.811 156.142 321.382 156.142 323.15C156.142 324.895 155.721 326.416 154.88 327.715C154.039 329.014 152.833 330.028 151.262 330.758C149.703 331.475 147.841 331.834 145.677 331.834ZM167.794 319.662L161.207 341H154.212L164.139 313.984H168.573L167.794 319.662ZM173.249 341L166.644 319.662L165.79 313.984H170.28L180.263 341H173.249ZM172.989 330.925V335.953H159.129V330.925H172.989ZM188.705 313.984V341H182.211V313.984H188.705ZM204.291 313.984L194.587 330.312H187.573L186.794 324.431H191.229L196.424 313.984H204.291ZM197.537 341L191.21 329.181L195.941 324.82L205.219 341H197.537ZM219.933 313.984V341H213.42V313.984H219.933ZM228.06 313.984V319.013H205.479V313.984H228.06ZM249.416 335.99V341H235.018V335.99H249.416ZM237.337 313.984V341H230.824V313.984H237.337ZM247.561 324.709V329.552H235.018V324.709H247.561ZM249.472 313.984V319.013H235.018V313.984H249.472ZM262.868 331.834H256.151V326.806H262.868C263.784 326.806 264.526 326.651 265.095 326.342C265.664 326.033 266.078 325.606 266.338 325.062C266.61 324.505 266.746 323.88 266.746 323.188C266.746 322.445 266.61 321.759 266.338 321.128C266.078 320.497 265.664 319.99 265.095 319.606C264.526 319.211 263.784 319.013 262.868 319.013H258.601V341H252.088V313.984H262.868C265.033 313.984 266.895 314.38 268.453 315.172C270.024 315.964 271.23 317.052 272.071 318.438C272.912 319.811 273.333 321.382 273.333 323.15C273.333 324.895 272.912 326.416 272.071 327.715C271.23 329.014 270.024 330.028 268.453 330.758C266.895 331.475 265.033 331.834 262.868 331.834ZM282.981 331.036L292.686 313.984H299.198V341H292.686V323.967L282.981 341H276.469V313.984H282.981V331.036ZM318.551 331.853H325.045C324.958 333.733 324.451 335.39 323.523 336.825C322.596 338.26 321.309 339.38 319.664 340.184C318.031 340.975 316.102 341.371 313.875 341.371C312.069 341.371 310.455 341.068 309.032 340.462C307.622 339.856 306.422 338.984 305.433 337.846C304.455 336.708 303.707 335.328 303.188 333.708C302.68 332.088 302.427 330.263 302.427 328.234V326.769C302.427 324.74 302.693 322.915 303.225 321.295C303.769 319.662 304.536 318.277 305.525 317.139C306.527 315.988 307.727 315.11 309.125 314.504C310.523 313.898 312.075 313.595 313.782 313.595C316.132 313.595 318.118 314.015 319.738 314.856C321.359 315.698 322.614 316.854 323.505 318.326C324.396 319.786 324.921 321.45 325.082 323.317H318.588C318.563 322.303 318.39 321.456 318.068 320.775C317.747 320.083 317.24 319.563 316.547 319.217C315.854 318.87 314.933 318.697 313.782 318.697C312.978 318.697 312.279 318.846 311.686 319.143C311.092 319.439 310.597 319.91 310.201 320.553C309.805 321.196 309.508 322.031 309.311 323.058C309.125 324.072 309.032 325.297 309.032 326.731V328.234C309.032 329.669 309.119 330.894 309.292 331.908C309.465 332.923 309.743 333.751 310.127 334.395C310.51 335.038 311.005 335.514 311.611 335.823C312.23 336.12 312.984 336.269 313.875 336.269C314.865 336.269 315.7 336.114 316.38 335.805C317.06 335.483 317.586 335.001 317.957 334.357C318.328 333.702 318.526 332.867 318.551 331.853ZM340.649 313.984V341H334.137V313.984H340.649ZM348.776 313.984V319.013H326.195V313.984H348.776ZM357.683 331.036L367.387 313.984H373.899V341H367.387V323.967L357.683 341H351.17V313.984H357.683V331.036ZM384.346 313.984V341H377.852V313.984H384.346ZM399.932 313.984L390.228 330.312H383.214L382.435 324.431H386.869L392.064 313.984H399.932ZM393.178 341L386.851 329.181L391.582 324.82L400.859 341H393.178ZM413.94 319.662L407.354 341H400.358L410.285 313.984H414.72L413.94 319.662ZM419.396 341L412.79 319.662L411.937 313.984H416.427L426.409 341H419.396ZM419.136 330.925V335.953H405.275V330.925H419.136Z" fill="#0079C2"/>
</svg>
