<svg width="512" height="592" viewBox="0 0 512 592" fill="none" xmlns="http://www.w3.org/2000/svg">
<path d="M268.709 12.8008L494.197 143.936C501.586 148.233 506.132 156.135 506.132 164.682V427.318C506.132 435.865 501.586 443.767 494.197 448.064L268.709 579.199C261.251 583.537 252.037 583.537 244.578 579.199L19.0906 448.064C11.7018 443.767 7.15601 435.865 7.15601 427.318V164.682C7.15601 156.135 11.7018 148.233 19.0906 143.936L244.578 12.8008C252.037 8.46308 261.251 8.46309 268.709 12.8008Z" fill="white" stroke="white" stroke-width="10"/>
<path d="M136.121 268.984V296H129.608V268.984H136.121ZM144.248 268.984V274.013H121.667V268.984H144.248ZM165.604 290.99V296H151.206V290.99H165.604ZM153.525 268.984V296H147.013V268.984H153.525ZM163.749 279.709V284.552H151.206V279.709H163.749ZM165.66 268.984V274.013H151.206V268.984H165.66ZM173.936 268.984L178.352 277.965L182.768 268.984H190.189L182.656 282.381L190.394 296H182.897L178.352 286.853L173.806 296H166.291L174.047 282.381L166.495 268.984H173.936ZM210.748 279.709V284.719H196.888V279.709H210.748ZM199.059 268.984V296H192.546V268.984H199.059ZM215.127 268.984V296H208.633V268.984H215.127ZM225.406 286.036L235.11 268.984H241.623V296H235.11V278.967L225.406 296H218.894V268.984H225.406V286.036ZM245.52 268.984H252.032V277.204C252.032 278.293 252.205 279.14 252.552 279.746C252.91 280.352 253.442 280.779 254.147 281.026C254.853 281.274 255.731 281.397 256.782 281.397C257.054 281.397 257.444 281.385 257.951 281.36C258.471 281.323 259.021 281.274 259.603 281.212C260.184 281.15 260.728 281.082 261.235 281.008C261.743 280.921 262.12 280.822 262.367 280.711V285.721C262.107 285.82 261.712 285.912 261.18 285.999C260.648 286.086 260.085 286.16 259.491 286.222C258.897 286.284 258.347 286.333 257.84 286.37C257.345 286.395 256.993 286.407 256.782 286.407C254.519 286.407 252.539 286.079 250.845 285.424C249.162 284.768 247.851 283.76 246.911 282.399C245.983 281.039 245.52 279.307 245.52 277.204V268.984ZM261.087 268.984H267.6V296H261.087V268.984ZM290.255 290.99V296H275.856V290.99H290.255ZM278.176 268.984V296H271.663V268.984H278.176ZM288.399 279.709V284.552H275.856V279.709H288.399ZM290.311 268.984V274.013H275.856V268.984H290.311ZM308.29 286.853H314.784C314.698 288.733 314.19 290.39 313.263 291.825C312.335 293.26 311.049 294.38 309.403 295.184C307.771 295.975 305.841 296.371 303.614 296.371C301.808 296.371 300.194 296.068 298.771 295.462C297.361 294.856 296.161 293.984 295.172 292.846C294.195 291.708 293.446 290.328 292.927 288.708C292.42 287.088 292.166 285.263 292.166 283.234V281.769C292.166 279.74 292.432 277.915 292.964 276.295C293.508 274.662 294.275 273.277 295.265 272.139C296.267 270.988 297.466 270.11 298.864 269.504C300.262 268.898 301.814 268.595 303.521 268.595C305.872 268.595 307.857 269.015 309.478 269.856C311.098 270.698 312.354 271.854 313.244 273.326C314.135 274.786 314.66 276.45 314.821 278.317H308.327C308.302 277.303 308.129 276.456 307.808 275.775C307.486 275.083 306.979 274.563 306.286 274.217C305.593 273.87 304.672 273.697 303.521 273.697C302.717 273.697 302.019 273.846 301.425 274.143C300.831 274.439 300.336 274.91 299.94 275.553C299.545 276.196 299.248 277.031 299.05 278.058C298.864 279.072 298.771 280.297 298.771 281.731V283.234C298.771 284.669 298.858 285.894 299.031 286.908C299.204 287.923 299.483 288.751 299.866 289.395C300.25 290.038 300.744 290.514 301.351 290.823C301.969 291.12 302.724 291.269 303.614 291.269C304.604 291.269 305.439 291.114 306.119 290.805C306.799 290.483 307.325 290.001 307.696 289.357C308.067 288.702 308.265 287.867 308.29 286.853ZM324.321 268.984V296H317.827V268.984H324.321ZM339.907 268.984L330.203 285.312H323.189L322.41 279.431H326.845L332.04 268.984H339.907ZM333.153 296L326.826 284.181L331.558 279.82L340.835 296H333.153ZM348.609 286.036L358.313 268.984H364.826V296H358.313V278.967L348.609 296H342.097V268.984H348.609V286.036ZM387.407 290.99V296H373.009V290.99H387.407ZM375.328 268.984V296H368.815V268.984H375.328ZM385.552 279.709V284.552H373.009V279.709H385.552ZM387.463 268.984V274.013H373.009V268.984H387.463ZM90.1611 313.984L94.5771 322.965L98.9932 313.984H106.415L98.8818 327.381L106.619 341H99.123L94.5771 331.853L90.0312 341H82.5166L90.2725 327.381L82.7207 313.984H90.1611ZM120.22 319.662L113.633 341H106.638L116.564 313.984H120.999L120.22 319.662ZM125.675 341L119.069 319.662L118.216 313.984H122.706L132.688 341H125.675ZM125.415 330.925V335.953H111.555V330.925H125.415ZM145.454 331.834H138.737V326.806H145.454C146.369 326.806 147.112 326.651 147.681 326.342C148.25 326.033 148.664 325.606 148.924 325.062C149.196 324.505 149.332 323.88 149.332 323.188C149.332 322.445 149.196 321.759 148.924 321.128C148.664 320.497 148.25 319.99 147.681 319.606C147.112 319.211 146.369 319.013 145.454 319.013H141.187V341H134.674V313.984H145.454C147.619 313.984 149.48 314.38 151.039 315.172C152.61 315.964 153.816 317.052 154.657 318.438C155.498 319.811 155.919 321.382 155.919 323.15C155.919 324.895 155.498 326.416 154.657 327.715C153.816 329.014 152.61 330.028 151.039 330.758C149.48 331.475 147.619 331.834 145.454 331.834ZM167.571 319.662L160.984 341H153.989L163.916 313.984H168.351L167.571 319.662ZM173.026 341L166.421 319.662L165.567 313.984H170.058L180.04 341H173.026ZM172.767 330.925V335.953H158.906V330.925H172.767ZM188.482 313.984V341H181.988V313.984H188.482ZM204.068 313.984L194.364 330.312H187.351L186.571 324.431H191.006L196.201 313.984H204.068ZM197.314 341L190.987 329.181L195.719 324.82L204.996 341H197.314ZM219.71 313.984V341H213.197V313.984H219.71ZM227.837 313.984V319.013H205.256V313.984H227.837ZM249.193 335.99V341H234.795V335.99H249.193ZM237.114 313.984V341H230.602V313.984H237.114ZM247.338 324.709V329.552H234.795V324.709H247.338ZM249.249 313.984V319.013H234.795V313.984H249.249ZM262.646 331.834H255.929V326.806H262.646C263.561 326.806 264.303 326.651 264.872 326.342C265.441 326.033 265.855 325.606 266.115 325.062C266.387 324.505 266.523 323.88 266.523 323.188C266.523 322.445 266.387 321.759 266.115 321.128C265.855 320.497 265.441 319.99 264.872 319.606C264.303 319.211 263.561 319.013 262.646 319.013H258.378V341H251.865V313.984H262.646C264.81 313.984 266.672 314.38 268.23 315.172C269.801 315.964 271.007 317.052 271.849 318.438C272.69 319.811 273.11 321.382 273.11 323.15C273.11 324.895 272.69 326.416 271.849 327.715C271.007 329.014 269.801 330.028 268.23 330.758C266.672 331.475 264.81 331.834 262.646 331.834ZM282.759 331.036L292.463 313.984H298.976V341H292.463V323.967L282.759 341H276.246V313.984H282.759V331.036ZM318.328 331.853H324.822C324.736 333.733 324.229 335.39 323.301 336.825C322.373 338.26 321.087 339.38 319.441 340.184C317.809 340.975 315.879 341.371 313.652 341.371C311.846 341.371 310.232 341.068 308.81 340.462C307.399 339.856 306.2 338.984 305.21 337.846C304.233 336.708 303.484 335.328 302.965 333.708C302.458 332.088 302.204 330.263 302.204 328.234V326.769C302.204 324.74 302.47 322.915 303.002 321.295C303.546 319.662 304.313 318.277 305.303 317.139C306.305 315.988 307.505 315.11 308.902 314.504C310.3 313.898 311.853 313.595 313.56 313.595C315.91 313.595 317.895 314.015 319.516 314.856C321.136 315.698 322.392 316.854 323.282 318.326C324.173 319.786 324.699 321.45 324.859 323.317H318.365C318.34 322.303 318.167 321.456 317.846 320.775C317.524 320.083 317.017 319.563 316.324 319.217C315.632 318.87 314.71 318.697 313.56 318.697C312.756 318.697 312.057 318.846 311.463 319.143C310.869 319.439 310.374 319.91 309.979 320.553C309.583 321.196 309.286 322.031 309.088 323.058C308.902 324.072 308.81 325.297 308.81 326.731V328.234C308.81 329.669 308.896 330.894 309.069 331.908C309.243 332.923 309.521 333.751 309.904 334.395C310.288 335.038 310.783 335.514 311.389 335.823C312.007 336.12 312.762 336.269 313.652 336.269C314.642 336.269 315.477 336.114 316.157 335.805C316.838 335.483 317.363 335.001 317.734 334.357C318.105 333.702 318.303 332.867 318.328 331.853ZM340.427 313.984V341H333.914V313.984H340.427ZM348.554 313.984V319.013H325.973V313.984H348.554ZM357.46 331.036L367.164 313.984H373.677V341H367.164V323.967L357.46 341H350.947V313.984H357.46V331.036ZM384.123 313.984V341H377.629V313.984H384.123ZM399.709 313.984L390.005 330.312H382.991L382.212 324.431H386.646L391.842 313.984H399.709ZM392.955 341L386.628 329.181L391.359 324.82L400.637 341H392.955ZM408.411 331.036L418.115 313.984H424.628V341H418.115V323.967L408.411 341H401.898V313.984H408.411V331.036Z" fill="#0079C2"/>
</svg>
